# xmcd
#
# Track frame offsets:
#	150
#	20199
#	30054
#	44596
#	58634
#	69990
#	84302
#	96647
#	111151
#	124200
#	134396
#	148027
#	161934
#	178823
#	195731
#	208935
#	222474
#	234788
#	248995
#	261446
#
# Disc length: 3759 seconds
#
# Revision: 1
# Processed by: cddbd v1.5.2PL0 Copyright (c) Steve Scherf et al.
# Submitted via: audiograbber 1.83.01
#
DISCID=360ead14
DTITLE=John Lee Hooker - JOHN LEE HOOKER - Red Collection [CD 2)
DYEAR=1900
DGENRE=Blues
TTITLE0=Dazie Mae
TTITLE1=I'm leaving
TTITLE2=How long must I be your slave
TTITLE3=I'm in the mood
TTITLE4=Blue monday
TTITLE5=Mean old train
TTITLE6=House rent boogie
TTITLE7=Do the boogie
TTITLE8=Do my baby think of me
TTITLE9=Hey boogie
TTITLE10=Black cat blues
TTITLE11=Louise
TTITLE12=Goin' mad blues
TTITLE13=Don't trust nobody
TTITLE14=Down at the landing
TTITLE15=Crawling king snake
TTITLE16=High priced woman
TTITLE17=Goin' south
TTITLE18=I'm mad
TTITLE19=Looking back over my day
EXTD=
EXTT0=
EXTT1=
EXTT2=
EXTT3=
EXTT4=
EXTT5=
EXTT6=
EXTT7=
EXTT8=
EXTT9=
EXTT10=
EXTT11=
EXTT12=
EXTT13=
EXTT14=
EXTT15=
EXTT16=
EXTT17=
EXTT18=
EXTT19=
PLAYORDER=
